# Blender v2.78 (sub 0) OBJ File: 'roadsAllBase.blend'
# www.blender.org
o mid001010_Cylinder.019
v -0.181578 1.092353 -0.705450
v -0.134721 1.092353 -0.530067
v -0.117030 1.092353 -0.357618
v -0.128806 1.092353 -0.185522
v -0.176836 1.092353 0.015467
v 0.272944 1.092353 0.156107
v 0.378525 1.092353 -0.058602
v 0.411844 1.092353 -0.248957
v 0.414365 1.092353 -0.490399
v 0.365794 1.092353 -0.662428
v 0.261814 1.092353 -0.847141
vt 0.4854 0.0621
vt 0.3566 0.5925
vt 0.3135 0.0456
vt 0.6568 0.0493
vt 0.8568 0.0001
vt 0.9999 0.4474
vt 0.7866 0.5540
vt 0.5972 0.5885
vt 0.1848 0.5453
vt 0.0001 0.4429
vt 0.1384 0.0001
vn 0.0000 1.0000 0.0000
s off
f 3/1/1 9/2/1 2/3/1
f 4/4/1 5/5/1 6/6/1
f 6/6/1 7/7/1 4/4/1
f 8/8/1 9/2/1 3/1/1
f 10/9/1 11/10/1 2/3/1
f 11/10/1 1/11/1 2/3/1
f 7/7/1 8/8/1 4/4/1
f 3/1/1 4/4/1 8/8/1
f 10/9/1 2/3/1 9/2/1
