# Blender v2.78 (sub 0) OBJ File: 'roadsAllBase.blend'
# www.blender.org
o mid011000_Cylinder.026
v 0.039707 1.078680 0.573542
v 0.177945 1.078680 0.491187
v 0.307360 1.078680 0.467657
v 0.401479 1.078680 0.497070
v 0.536776 1.078680 0.576483
v 0.700276 1.078680 -0.078161
v 0.616337 1.078680 -0.143077
v 0.513246 1.078680 -0.184672
v 0.383623 1.078680 -0.206053
v 0.164326 1.078680 -0.204530
v -0.021015 1.078680 -0.153319
v -0.129987 1.078680 -0.074021
vt -0.2299 0.7825
vt -0.3724 0.8208
vt -0.2232 1.3164
vt -0.0517 1.3221
vt 0.0517 1.3838
vt 0.1807 0.8823
vt 0.1166 0.8321
vt -0.1237 1.2991
vt 0.0377 0.7996
vt -0.0616 0.7825
vt -0.4565 0.8811
vt -0.3297 1.3789
vn 0.0000 1.0000 0.0000
s 1
f 10/1/1 11/2/1 2/3/1
f 4/4/1 5/5/1 6/6/1
f 6/6/1 7/7/1 3/8/1
f 8/9/1 9/10/1 3/8/1
f 10/1/1 2/3/1 3/8/1
f 12/11/1 1/12/1 2/3/1
f 3/8/1 4/4/1 6/6/1
f 12/11/1 2/3/1 11/2/1
f 9/10/1 10/1/1 3/8/1
f 3/8/1 7/7/1 8/9/1
