# Blender v2.78 (sub 0) OBJ File: 'roadsAllBase.blend'
# www.blender.org
o mid100001_Cylinder.024
v 1.187989 1.078680 -0.568045
v 1.061857 1.078680 -0.635593
v 0.966843 1.078680 -0.717210
v 0.939463 1.078680 -0.843239
v 0.942253 1.078680 -1.000096
v 0.291631 1.078680 -0.821260
v 0.276267 1.078680 -0.716266
v 0.290622 1.078680 -0.606030
v 0.335611 1.078680 -0.482599
v 0.444566 1.078680 -0.292277
v 0.580148 1.078680 -0.155926
v 0.702720 1.078680 -0.099900
vt 0.4918 0.6903
vt 0.2655 0.2187
vt 0.1814 0.2790
vt 0.5862 0.7201
vt 0.6896 0.7817
vt 0.8186 0.2803
vt 0.7545 0.2300
vt 0.6756 0.1975
vt 0.5763 0.1804
vt 0.4080 0.1804
vt 0.3082 0.7807
vt 0.4013 0.7224
vn 0.0000 1.0000 0.0000
s 1
f 3/1/1 11/2/1 12/3/1
f 4/4/1 5/5/1 6/6/1
f 6/6/1 7/7/1 4/4/1
f 8/8/1 9/9/1 3/1/1
f 10/10/1 11/2/1 3/1/1
f 12/3/1 1/11/1 2/12/1
f 3/1/1 4/4/1 7/7/1
f 12/3/1 2/12/1 3/1/1
f 9/9/1 10/10/1 3/1/1
f 3/1/1 7/7/1 8/8/1
