# Blender v2.78 (sub 0) OBJ File: 'roadsAllBase.blend'
# www.blender.org
o mid110000_Cylinder.025
v 0.950009 1.078680 0.332836
v 0.920820 1.078680 0.200528
v 0.945480 1.078680 0.077724
v 1.041976 1.078680 -0.007842
v 1.180122 1.078680 -0.082191
v 0.705697 1.078680 -0.561996
v 0.606621 1.078680 -0.523999
v 0.517522 1.078680 -0.457521
v 0.431911 1.078680 -0.357871
v 0.319283 1.078680 -0.169700
v 0.266752 1.078680 0.015272
v 0.277896 1.078680 0.149580
vt -0.1460 0.0762
vt -0.3724 -0.3954
vt -0.4565 -0.3351
vt -0.0517 0.1060
vt 0.0517 0.1676
vt 0.1807 -0.3339
vt 0.1166 -0.3841
vt 0.0377 -0.4166
vt -0.0616 -0.4337
vt -0.2299 -0.4337
vt -0.3122 0.1797
vt -0.2366 0.1083
vn 0.0000 1.0000 0.0000
s 1
f 3/1/1 11/2/1 12/3/1
f 4/4/1 5/5/1 6/6/1
f 6/6/1 7/7/1 4/4/1
f 8/8/1 9/9/1 3/1/1
f 10/10/1 11/2/1 3/1/1
f 12/3/1 1/11/1 2/12/1
f 3/1/1 4/4/1 7/7/1
f 12/3/1 2/12/1 3/1/1
f 9/9/1 10/10/1 3/1/1
f 3/1/1 7/7/1 8/8/1
