# Blender v2.78 (sub 0) OBJ File: 'hex.blend'
# www.blender.org
o Cylinder.001
v 4.531660 0.960481 -2.697699
v 0.305318 0.960481 -5.137779
v -3.921026 0.960481 -2.697699
v -3.921026 0.960481 2.182460
v 0.305317 0.960480 4.622541
v 4.531660 0.960481 2.182461
v 4.635445 0.960481 -2.757619
v 0.305318 0.960481 -5.257619
v -4.024810 0.960481 -2.757619
v -4.024810 0.960481 2.242380
v 0.305317 0.960481 4.742381
v 4.635445 0.960481 2.242381
v 4.531660 0.960481 -2.697699
v 0.305318 0.960481 -5.137779
v -3.921026 0.960481 -2.697699
v -3.921026 0.960481 2.182460
v 0.305317 0.960480 4.622541
v 4.531660 0.960481 2.182461
v 4.635445 0.908116 -2.757619
v 0.305318 0.908116 -5.257619
v -4.024810 0.908116 -2.757619
v -4.024810 0.908115 2.242380
v 0.305317 0.908115 4.742381
v 4.635445 0.908115 2.242381
v 0.305318 -0.091884 -5.257619
v 4.635445 -0.091884 -2.757619
v 4.635445 -0.091885 2.242381
v 0.305317 -0.091885 4.742381
v -4.024810 -0.091885 2.242380
v -4.024810 -0.091884 -2.757619
v 1.742767 0.533276 3.889438
vt 0.5423 0.1186
vt 0.5430 0.3556
vt 0.5515 0.1615
vt 0.5365 0.6876
vt 0.5331 0.1051
vt 0.5343 0.8470
vt 0.5353 0.8742
vt 0.5119 0.8011
vt 0.5319 0.3653
vt 0.5219 0.4705
vt 0.5258 0.3852
vt 0.8004 0.7500
vt 0.7939 0.7437
vt 0.7910 0.7594
vt 0.7986 0.7501
vt 0.7986 0.7343
vt 0.8031 0.7500
vt 0.7969 0.7437
vt 0.7937 0.7438
vt 0.1312 0.6969
vt 0.1226 0.7083
vt 0.1445 0.7079
vt 0.1281 0.7062
vt 0.1312 0.7156
vt 0.1347 0.7020
vt 0.1383 0.7102
vt 0.1352 0.7133
vt 0.1312 0.6969
vt 0.1310 0.7014
vt 0.1308 0.7087
vt 0.1219 0.7125
vt 0.1312 0.7094
vt 0.1219 0.7094
vt 0.1298 0.7134
vt 0.5433 0.4148
vn 0.0000 1.0000 0.0000
vn 0.5000 0.0000 -0.8660
vn 1.0000 0.0000 0.0000
vn 0.5000 0.0000 0.8660
vn -0.5000 0.0000 0.8660
vn -1.0000 0.0000 0.0000
vn -0.5000 0.0000 -0.8660
vn 0.0000 -1.0000 -0.0000
s 1
f 3/1/1 8/2/1 9/3/1
f 1/4/1 8/2/1 2/5/1
f 12/6/1 1/4/1 6/7/1
f 5/8/1 12/6/1 6/7/1
f 3/1/1 10/9/1 4/10/1
f 4/10/1 11/11/1 5/8/1
f 14/12/1 16/13/1 13/14/1
f 18/15/1 13/14/1 16/13/1
f 14/12/1 15/16/1 16/13/1
f 16/17/1 17/18/1 18/19/1
f 20/20/2 26/21/2 25/22/2
f 19/23/3 27/24/3 26/21/3
f 24/25/4 28/26/4 27/27/4
f 23/28/5 29/29/5 28/30/5
f 22/31/6 30/32/6 29/29/6
f 21/33/7 25/22/7 30/32/7
f 27/24/8 28/30/8 30/32/8
f 20/20/2 19/23/2 26/21/2
f 19/23/3 24/34/3 27/24/3
f 24/34/4 23/28/4 28/30/4
f 23/28/5 22/31/5 29/29/5
f 22/31/6 21/33/6 30/32/6
f 21/33/7 20/20/7 25/22/7
f 30/32/8 25/22/8 26/21/8
f 26/21/8 27/24/8 30/32/8
f 28/30/8 29/29/8 30/32/8
f 3/1/1 2/5/1 8/2/1
f 1/4/1 7/35/1 8/2/1
f 12/6/1 7/35/1 1/4/1
f 5/8/1 11/11/1 12/6/1
f 3/1/1 9/3/1 10/9/1
f 4/10/1 10/9/1 11/11/1
